<svg xmlns="http://www.w3.org/2000/svg" width="800" height="480" viewBox="0 0 800 480">
<rect width="800" height="480" fill="#dcdcdc"/>
<rect x="8" y="8" width="384" height="228" fill="#efefef" stroke="#111" stroke-width="2"/>
<text x="16" y="23" font-size="12" font-family="monospace">ASTER/ASTER 3m HA</text>
<line x1="12" y1="74" x2="388" y2="74" stroke="#666" stroke-dasharray="4 4"/>
<line x1="12" y1="112" x2="388" y2="112" stroke="#666" stroke-dasharray="4 4"/>
<line x1="12" y1="150" x2="388" y2="150" stroke="#666" stroke-dasharray="4 4"/>
<line x1="18" y1="107" x2="18" y2="123" stroke="#111" stroke-width="1"/>
<rect x="14" y="110" width="8" height="3" fill="#111"/>
<line x1="31" y1="93" x2="31" y2="118" stroke="#111" stroke-width="1"/>
<rect x="27" y="101" width="8" height="9" fill="none" stroke="#111" stroke-width="1"/>
<line x1="44" y1="98" x2="44" y2="104" stroke="#111" stroke-width="1"/>
<rect x="40" y="101" width="8" height="1" fill="#111"/>
<line x1="58" y1="91" x2="58" y2="110" stroke="#111" stroke-width="1"/>
<rect x="54" y="101" width="8" height="4" fill="none" stroke="#111" stroke-width="1"/>
<line x1="71" y1="90" x2="71" y2="112" stroke="#111" stroke-width="1"/>
<rect x="67" y="98" width="8" height="7" fill="#111"/>
<line x1="85" y1="92" x2="85" y2="107" stroke="#111" stroke-width="1"/>
<rect x="81" y="98" width="8" height="4" fill="none" stroke="#111" stroke-width="1"/>
<line x1="98" y1="87" x2="98" y2="105" stroke="#111" stroke-width="1"/>
<rect x="94" y="93" width="8" height="9" fill="#111"/>
<line x1="112" y1="87" x2="112" y2="105" stroke="#111" stroke-width="1"/>
<rect x="108" y="93" width="8" height="8" fill="none" stroke="#111" stroke-width="1"/>
<line x1="125" y1="92" x2="125" y2="118" stroke="#111" stroke-width="1"/>
<rect x="121" y="101" width="8" height="9" fill="#111"/>
<line x1="139" y1="104" x2="139" y2="120" stroke="#111" stroke-width="1"/>
<rect x="135" y="109" width="8" height="1" fill="none" stroke="#111" stroke-width="1"/>
<line x1="152" y1="102" x2="152" y2="114" stroke="#111" stroke-width="1"/>
<rect x="148" y="109" width="8" height="1" fill="#111"/>
<line x1="166" y1="105" x2="166" y2="120" stroke="#111" stroke-width="1"/>
<rect x="162" y="110" width="8" height="4" fill="none" stroke="#111" stroke-width="1"/>
<line x1="179" y1="103" x2="179" y2="117" stroke="#111" stroke-width="1"/>
<rect x="175" y="109" width="8" height="5" fill="#111"/>
<line x1="193" y1="100" x2="193" y2="126" stroke="#111" stroke-width="1"/>
<rect x="189" y="109" width="8" height="10" fill="none" stroke="#111" stroke-width="1"/>
<line x1="206" y1="99" x2="206" y2="122" stroke="#111" stroke-width="1"/>
<rect x="202" y="109" width="8" height="10" fill="#111"/>
<line x1="220" y1="100" x2="220" y2="118" stroke="#111" stroke-width="1"/>
<rect x="216" y="109" width="8" height="4" fill="none" stroke="#111" stroke-width="1"/>
<line x1="233" y1="101" x2="233" y2="121" stroke="#111" stroke-width="1"/>
<rect x="229" y="104" width="8" height="9" fill="#111"/>
<line x1="247" y1="93" x2="247" y2="110" stroke="#111" stroke-width="1"/>
<rect x="243" y="97" width="8" height="7" fill="none" stroke="#111" stroke-width="1"/>
<line x1="260" y1="93" x2="260" y2="112" stroke="#111" stroke-width="1"/>
<rect x="256" y="97" width="8" height="5" fill="#111"/>
<line x1="274" y1="87" x2="274" y2="105" stroke="#111" stroke-width="1"/>
<rect x="270" y="93" width="8" height="9" fill="none" stroke="#111" stroke-width="1"/>
<line x1="287" y1="84" x2="287" y2="101" stroke="#111" stroke-width="1"/>
<rect x="283" y="93" width="8" height="5" fill="#111"/>
<line x1="301" y1="82" x2="301" y2="107" stroke="#111" stroke-width="1"/>
<rect x="297" y="89" width="8" height="9" fill="none" stroke="#111" stroke-width="1"/>
<line x1="314" y1="82" x2="314" y2="96" stroke="#111" stroke-width="1"/>
<rect x="310" y="89" width="8" height="4" fill="#111"/>
<line x1="328" y1="78" x2="328" y2="98" stroke="#111" stroke-width="1"/>
<rect x="324" y="84" width="8" height="9" fill="none" stroke="#111" stroke-width="1"/>
<line x1="341" y1="75" x2="341" y2="96" stroke="#111" stroke-width="1"/>
<rect x="337" y="84" width="8" height="6" fill="#111"/>
<line x1="355" y1="84" x2="355" y2="101" stroke="#111" stroke-width="1"/>
<rect x="351" y="90" width="8" height="7" fill="none" stroke="#111" stroke-width="1"/>
<line x1="368" y1="93" x2="368" y2="101" stroke="#111" stroke-width="1"/>
<rect x="364" y="97" width="8" height="1" fill="#111"/>
<rect x="12" y="202" width="376" height="12" fill="none" stroke="#111"/>
<rect x="12" y="218" width="376" height="10" fill="none" stroke="#111"/>
<rect x="408" y="8" width="384" height="228" fill="#efefef" stroke="#111" stroke-width="2"/>
<text x="416" y="23" font-size="12" font-family="monospace">HL:ETH 1h HA</text>
<line x1="412" y1="74" x2="788" y2="74" stroke="#666" stroke-dasharray="4 4"/>
<line x1="412" y1="112" x2="788" y2="112" stroke="#666" stroke-dasharray="4 4"/>
<line x1="412" y1="150" x2="788" y2="150" stroke="#666" stroke-dasharray="4 4"/>
<line x1="418" y1="108" x2="418" y2="124" stroke="#111" stroke-width="1"/>
<rect x="414" y="113" width="8" height="7" fill="#111"/>
<line x1="431" y1="113" x2="431" y2="130" stroke="#111" stroke-width="1"/>
<rect x="427" y="116" width="8" height="4" fill="none" stroke="#111" stroke-width="1"/>
<line x1="444" y1="108" x2="444" y2="133" stroke="#111" stroke-width="1"/>
<rect x="440" y="116" width="8" height="7" fill="#111"/>
<line x1="458" y1="114" x2="458" y2="131" stroke="#111" stroke-width="1"/>
<rect x="454" y="123" width="8" height="3" fill="none" stroke="#111" stroke-width="1"/>
<line x1="471" y1="109" x2="471" y2="136" stroke="#111" stroke-width="1"/>
<rect x="467" y="116" width="8" height="10" fill="#111"/>
<line x1="485" y1="109" x2="485" y2="121" stroke="#111" stroke-width="1"/>
<rect x="481" y="113" width="8" height="3" fill="none" stroke="#111" stroke-width="1"/>
<line x1="498" y1="102" x2="498" y2="117" stroke="#111" stroke-width="1"/>
<rect x="494" y="112" width="8" height="1" fill="#111"/>
<line x1="512" y1="101" x2="512" y2="120" stroke="#111" stroke-width="1"/>
<rect x="508" y="110" width="8" height="2" fill="none" stroke="#111" stroke-width="1"/>
<line x1="525" y1="99" x2="525" y2="114" stroke="#111" stroke-width="1"/>
<rect x="521" y="104" width="8" height="6" fill="#111"/>
<line x1="539" y1="98" x2="539" y2="113" stroke="#111" stroke-width="1"/>
<rect x="535" y="104" width="8" height="5" fill="none" stroke="#111" stroke-width="1"/>
<line x1="552" y1="103" x2="552" y2="119" stroke="#111" stroke-width="1"/>
<rect x="548" y="109" width="8" height="3" fill="#111"/>
<line x1="566" y1="93" x2="566" y2="118" stroke="#111" stroke-width="1"/>
<rect x="562" y="103" width="8" height="9" fill="none" stroke="#111" stroke-width="1"/>
<line x1="579" y1="88" x2="579" y2="110" stroke="#111" stroke-width="1"/>
<rect x="575" y="94" width="8" height="9" fill="#111"/>
<line x1="593" y1="90" x2="593" y2="99" stroke="#111" stroke-width="1"/>
<rect x="589" y="94" width="8" height="1" fill="none" stroke="#111" stroke-width="1"/>
<line x1="606" y1="87" x2="606" y2="107" stroke="#111" stroke-width="1"/>
<rect x="602" y="95" width="8" height="3" fill="#111"/>
<line x1="620" y1="95" x2="620" y2="112" stroke="#111" stroke-width="1"/>
<rect x="616" y="98" width="8" height="7" fill="none" stroke="#111" stroke-width="1"/>
<line x1="633" y1="100" x2="633" y2="118" stroke="#111" stroke-width="1"/>
<rect x="629" y="105" width="8" height="10" fill="#111"/>
<line x1="647" y1="110" x2="647" y2="122" stroke="#111" stroke-width="1"/>
<rect x="643" y="115" width="8" height="4" fill="none" stroke="#111" stroke-width="1"/>
<line x1="660" y1="101" x2="660" y2="126" stroke="#111" stroke-width="1"/>
<rect x="656" y="110" width="8" height="9" fill="#111"/>
<line x1="674" y1="94" x2="674" y2="115" stroke="#111" stroke-width="1"/>
<rect x="670" y="103" width="8" height="7" fill="none" stroke="#111" stroke-width="1"/>
<line x1="687" y1="99" x2="687" y2="110" stroke="#111" stroke-width="1"/>
<rect x="683" y="103" width="8" height="1" fill="#111"/>
<line x1="701" y1="93" x2="701" y2="110" stroke="#111" stroke-width="1"/>
<rect x="697" y="98" width="8" height="5" fill="none" stroke="#111" stroke-width="1"/>
<line x1="714" y1="90" x2="714" y2="110" stroke="#111" stroke-width="1"/>
<rect x="710" y="98" width="8" height="5" fill="#111"/>
<line x1="728" y1="90" x2="728" y2="106" stroke="#111" stroke-width="1"/>
<rect x="724" y="94" width="8" height="9" fill="none" stroke="#111" stroke-width="1"/>
<line x1="741" y1="80" x2="741" y2="97" stroke="#111" stroke-width="1"/>
<rect x="737" y="84" width="8" height="10" fill="#111"/>
<line x1="755" y1="70" x2="755" y2="93" stroke="#111" stroke-width="1"/>
<rect x="751" y="78" width="8" height="6" fill="none" stroke="#111" stroke-width="1"/>
<line x1="768" y1="73" x2="768" y2="84" stroke="#111" stroke-width="1"/>
<rect x="764" y="76" width="8" height="2" fill="#111"/>
<rect x="412" y="202" width="376" height="12" fill="none" stroke="#111"/>
<rect x="412" y="218" width="376" height="10" fill="none" stroke="#111"/>
<rect x="8" y="244" width="384" height="228" fill="#efefef" stroke="#111" stroke-width="2"/>
<text x="16" y="259" font-size="12" font-family="monospace">KRK:SOL 1d HA</text>
<line x1="12" y1="310" x2="388" y2="310" stroke="#666" stroke-dasharray="4 4"/>
<line x1="12" y1="348" x2="388" y2="348" stroke="#666" stroke-dasharray="4 4"/>
<line x1="12" y1="386" x2="388" y2="386" stroke="#666" stroke-dasharray="4 4"/>
<line x1="18" y1="340" x2="18" y2="360" stroke="#111" stroke-width="1"/>
<rect x="14" y="349" width="8" height="6" fill="#111"/>
<line x1="31" y1="349" x2="31" y2="364" stroke="#111" stroke-width="1"/>
<rect x="27" y="355" width="8" height="1" fill="none" stroke="#111" stroke-width="1"/>
<line x1="44" y1="353" x2="44" y2="362" stroke="#111" stroke-width="1"/>
<rect x="40" y="356" width="8" height="1" fill="#111"/>
<line x1="58" y1="352" x2="58" y2="369" stroke="#111" stroke-width="1"/>
<rect x="54" y="357" width="8" height="8" fill="none" stroke="#111" stroke-width="1"/>
<line x1="71" y1="358" x2="71" y2="370" stroke="#111" stroke-width="1"/>
<rect x="67" y="363" width="8" height="2" fill="#111"/>
<line x1="85" y1="354" x2="85" y2="376" stroke="#111" stroke-width="1"/>
<rect x="81" y="363" width="8" height="4" fill="none" stroke="#111" stroke-width="1"/>
<line x1="98" y1="352" x2="98" y2="375" stroke="#111" stroke-width="1"/>
<rect x="94" y="360" width="8" height="7" fill="#111"/>
<line x1="112" y1="354" x2="112" y2="374" stroke="#111" stroke-width="1"/>
<rect x="108" y="360" width="8" height="4" fill="none" stroke="#111" stroke-width="1"/>
<line x1="125" y1="355" x2="125" y2="378" stroke="#111" stroke-width="1"/>
<rect x="121" y="364" width="8" height="9" fill="#111"/>
<line x1="139" y1="370" x2="139" y2="382" stroke="#111" stroke-width="1"/>
<rect x="135" y="373" width="8" height="4" fill="none" stroke="#111" stroke-width="1"/>
<line x1="152" y1="367" x2="152" y2="394" stroke="#111" stroke-width="1"/>
<rect x="148" y="377" width="8" height="7" fill="#111"/>
<line x1="166" y1="381" x2="166" y2="397" stroke="#111" stroke-width="1"/>
<rect x="162" y="384" width="8" height="9" fill="none" stroke="#111" stroke-width="1"/>
<line x1="179" y1="378" x2="179" y2="396" stroke="#111" stroke-width="1"/>
<rect x="175" y="387" width="8" height="6" fill="#111"/>
<line x1="193" y1="380" x2="193" y2="390" stroke="#111" stroke-width="1"/>
<rect x="189" y="383" width="8" height="4" fill="none" stroke="#111" stroke-width="1"/>
<line x1="206" y1="377" x2="206" y2="401" stroke="#111" stroke-width="1"/>
<rect x="202" y="383" width="8" height="8" fill="#111"/>
<line x1="220" y1="382" x2="220" y2="402" stroke="#111" stroke-width="1"/>
<rect x="216" y="391" width="8" height="1" fill="none" stroke="#111" stroke-width="1"/>
<line x1="233" y1="382" x2="233" y2="399" stroke="#111" stroke-width="1"/>
<rect x="229" y="388" width="8" height="4" fill="#111"/>
<line x1="247" y1="377" x2="247" y2="396" stroke="#111" stroke-width="1"/>
<rect x="243" y="384" width="8" height="4" fill="none" stroke="#111" stroke-width="1"/>
<line x1="260" y1="373" x2="260" y2="392" stroke="#111" stroke-width="1"/>
<rect x="256" y="381" width="8" height="3" fill="#111"/>
<line x1="274" y1="375" x2="274" y2="391" stroke="#111" stroke-width="1"/>
<rect x="270" y="378" width="8" height="3" fill="none" stroke="#111" stroke-width="1"/>
<line x1="287" y1="370" x2="287" y2="385" stroke="#111" stroke-width="1"/>
<rect x="283" y="378" width="8" height="2" fill="#111"/>
<line x1="301" y1="368" x2="301" y2="390" stroke="#111" stroke-width="1"/>
<rect x="297" y="374" width="8" height="6" fill="none" stroke="#111" stroke-width="1"/>
<line x1="314" y1="371" x2="314" y2="380" stroke="#111" stroke-width="1"/>
<rect x="310" y="374" width="8" height="2" fill="#111"/>
<line x1="328" y1="362" x2="328" y2="380" stroke="#111" stroke-width="1"/>
<rect x="324" y="371" width="8" height="5" fill="none" stroke="#111" stroke-width="1"/>
<line x1="341" y1="364" x2="341" y2="379" stroke="#111" stroke-width="1"/>
<rect x="337" y="370" width="8" height="1" fill="#111"/>
<line x1="355" y1="360" x2="355" y2="379" stroke="#111" stroke-width="1"/>
<rect x="351" y="370" width="8" height="5" fill="none" stroke="#111" stroke-width="1"/>
<line x1="368" y1="362" x2="368" y2="378" stroke="#111" stroke-width="1"/>
<rect x="364" y="371" width="8" height="4" fill="#111"/>
<rect x="12" y="438" width="376" height="12" fill="none" stroke="#111"/>
<rect x="12" y="454" width="376" height="10" fill="none" stroke="#111"/>
<rect x="408" y="244" width="384" height="228" fill="#efefef" stroke="#111" stroke-width="2"/>
<text x="416" y="259" font-size="12" font-family="monospace">BIN:BTC 1w HA</text>
<line x1="412" y1="310" x2="788" y2="310" stroke="#666" stroke-dasharray="4 4"/>
<line x1="412" y1="348" x2="788" y2="348" stroke="#666" stroke-dasharray="4 4"/>
<line x1="412" y1="386" x2="788" y2="386" stroke="#666" stroke-dasharray="4 4"/>
<line x1="418" y1="337" x2="418" y2="358" stroke="#111" stroke-width="1"/>
<rect x="414" y="342" width="8" height="7" fill="#111"/>
<line x1="431" y1="324" x2="431" y2="345" stroke="#111" stroke-width="1"/>
<rect x="427" y="332" width="8" height="10" fill="none" stroke="#111" stroke-width="1"/>
<line x1="444" y1="325" x2="444" y2="350" stroke="#111" stroke-width="1"/>
<rect x="440" y="332" width="8" height="9" fill="#111"/>
<line x1="458" y1="331" x2="458" y2="356" stroke="#111" stroke-width="1"/>
<rect x="454" y="341" width="8" height="6" fill="none" stroke="#111" stroke-width="1"/>
<line x1="471" y1="344" x2="471" y2="356" stroke="#111" stroke-width="1"/>
<rect x="467" y="347" width="8" height="4" fill="#111"/>
<line x1="485" y1="343" x2="485" y2="357" stroke="#111" stroke-width="1"/>
<rect x="481" y="351" width="8" height="3" fill="none" stroke="#111" stroke-width="1"/>
<line x1="498" y1="348" x2="498" y2="367" stroke="#111" stroke-width="1"/>
<rect x="494" y="354" width="8" height="6" fill="#111"/>
<line x1="512" y1="355" x2="512" y2="363" stroke="#111" stroke-width="1"/>
<rect x="508" y="359" width="8" height="1" fill="none" stroke="#111" stroke-width="1"/>
<line x1="525" y1="343" x2="525" y2="368" stroke="#111" stroke-width="1"/>
<rect x="521" y="351" width="8" height="8" fill="#111"/>
<line x1="539" y1="347" x2="539" y2="358" stroke="#111" stroke-width="1"/>
<rect x="535" y="350" width="8" height="1" fill="none" stroke="#111" stroke-width="1"/>
<line x1="552" y1="343" x2="552" y2="353" stroke="#111" stroke-width="1"/>
<rect x="548" y="347" width="8" height="3" fill="#111"/>
<line x1="566" y1="332" x2="566" y2="355" stroke="#111" stroke-width="1"/>
<rect x="562" y="339" width="8" height="8" fill="none" stroke="#111" stroke-width="1"/>
<line x1="579" y1="333" x2="579" y2="358" stroke="#111" stroke-width="1"/>
<rect x="575" y="339" width="8" height="9" fill="#111"/>
<line x1="593" y1="344" x2="593" y2="358" stroke="#111" stroke-width="1"/>
<rect x="589" y="348" width="8" height="6" fill="none" stroke="#111" stroke-width="1"/>
<line x1="606" y1="343" x2="606" y2="363" stroke="#111" stroke-width="1"/>
<rect x="602" y="351" width="8" height="3" fill="#111"/>
<line x1="620" y1="348" x2="620" y2="362" stroke="#111" stroke-width="1"/>
<rect x="616" y="351" width="8" height="2" fill="none" stroke="#111" stroke-width="1"/>
<line x1="633" y1="348" x2="633" y2="361" stroke="#111" stroke-width="1"/>
<rect x="629" y="353" width="8" height="2" fill="#111"/>
<line x1="647" y1="347" x2="647" y2="373" stroke="#111" stroke-width="1"/>
<rect x="643" y="355" width="8" height="9" fill="none" stroke="#111" stroke-width="1"/>
<line x1="660" y1="360" x2="660" y2="372" stroke="#111" stroke-width="1"/>
<rect x="656" y="364" width="8" height="1" fill="#111"/>
<line x1="674" y1="357" x2="674" y2="370" stroke="#111" stroke-width="1"/>
<rect x="670" y="361" width="8" height="3" fill="none" stroke="#111" stroke-width="1"/>
<line x1="687" y1="353" x2="687" y2="368" stroke="#111" stroke-width="1"/>
<rect x="683" y="360" width="8" height="1" fill="#111"/>
<line x1="701" y1="356" x2="701" y2="374" stroke="#111" stroke-width="1"/>
<rect x="697" y="360" width="8" height="9" fill="none" stroke="#111" stroke-width="1"/>
<line x1="714" y1="352" x2="714" y2="374" stroke="#111" stroke-width="1"/>
<rect x="710" y="361" width="8" height="8" fill="#111"/>
<line x1="728" y1="354" x2="728" y2="370" stroke="#111" stroke-width="1"/>
<rect x="724" y="358" width="8" height="3" fill="none" stroke="#111" stroke-width="1"/>
<line x1="741" y1="352" x2="741" y2="370" stroke="#111" stroke-width="1"/>
<rect x="737" y="358" width="8" height="3" fill="#111"/>
<line x1="755" y1="355" x2="755" y2="373" stroke="#111" stroke-width="1"/>
<rect x="751" y="361" width="8" height="5" fill="none" stroke="#111" stroke-width="1"/>
<line x1="768" y1="359" x2="768" y2="373" stroke="#111" stroke-width="1"/>
<rect x="764" y="366" width="8" height="3" fill="#111"/>
<rect x="412" y="438" width="376" height="12" fill="none" stroke="#111"/>
<rect x="412" y="454" width="376" height="10" fill="none" stroke="#111"/>
</svg>