<svg xmlns="http://www.w3.org/2000/svg" width="800" height="480" viewBox="0 0 800 480">
<rect width="800" height="480" fill="#dcdcdc"/>
<rect x="8" y="8" width="784" height="464" fill="#efefef" stroke="#111" stroke-width="2"/>
<text x="16" y="23" font-size="12" font-family="monospace">ASTER/USDT 3m HA</text>
<line x1="12" y1="140" x2="788" y2="140" stroke="#666" stroke-dasharray="4 4"/>
<line x1="12" y1="234" x2="788" y2="234" stroke="#666" stroke-dasharray="4 4"/>
<line x1="12" y1="329" x2="788" y2="329" stroke="#666" stroke-dasharray="4 4"/>
<line x1="18" y1="224" x2="18" y2="248" stroke="#111" stroke-width="1"/>
<rect x="14" y="231" width="8" height="9" fill="#111"/>
<line x1="31" y1="237" x2="31" y2="260" stroke="#111" stroke-width="1"/>
<rect x="27" y="240" width="8" height="10" fill="none" stroke="#111" stroke-width="1"/>
<line x1="45" y1="244" x2="45" y2="255" stroke="#111" stroke-width="1"/>
<rect x="41" y="247" width="8" height="3" fill="#111"/>
<line x1="58" y1="232" x2="58" y2="257" stroke="#111" stroke-width="1"/>
<rect x="54" y="240" width="8" height="7" fill="none" stroke="#111" stroke-width="1"/>
<line x1="72" y1="228" x2="72" y2="244" stroke="#111" stroke-width="1"/>
<rect x="68" y="237" width="8" height="3" fill="#111"/>
<line x1="86" y1="231" x2="86" y2="248" stroke="#111" stroke-width="1"/>
<rect x="82" y="237" width="8" height="8" fill="none" stroke="#111" stroke-width="1"/>
<line x1="99" y1="232" x2="99" y2="252" stroke="#111" stroke-width="1"/>
<rect x="95" y="241" width="8" height="4" fill="#111"/>
<line x1="113" y1="227" x2="113" y2="246" stroke="#111" stroke-width="1"/>
<rect x="109" y="236" width="8" height="5" fill="none" stroke="#111" stroke-width="1"/>
<line x1="127" y1="223" x2="127" y2="246" stroke="#111" stroke-width="1"/>
<rect x="123" y="228" width="8" height="8" fill="#111"/>
<line x1="140" y1="217" x2="140" y2="231" stroke="#111" stroke-width="1"/>
<rect x="136" y="222" width="8" height="6" fill="none" stroke="#111" stroke-width="1"/>
<line x1="154" y1="206" x2="154" y2="228" stroke="#111" stroke-width="1"/>
<rect x="150" y="212" width="8" height="10" fill="#111"/>
<line x1="168" y1="202" x2="168" y2="219" stroke="#111" stroke-width="1"/>
<rect x="164" y="207" width="8" height="5" fill="none" stroke="#111" stroke-width="1"/>
<line x1="181" y1="201" x2="181" y2="213" stroke="#111" stroke-width="1"/>
<rect x="177" y="207" width="8" height="1" fill="#111"/>
<line x1="195" y1="196" x2="195" y2="216" stroke="#111" stroke-width="1"/>
<rect x="191" y="202" width="8" height="5" fill="none" stroke="#111" stroke-width="1"/>
<line x1="209" y1="198" x2="209" y2="210" stroke="#111" stroke-width="1"/>
<rect x="205" y="201" width="8" height="1" fill="#111"/>
<line x1="222" y1="196" x2="222" y2="209" stroke="#111" stroke-width="1"/>
<rect x="218" y="201" width="8" height="3" fill="none" stroke="#111" stroke-width="1"/>
<line x1="236" y1="198" x2="236" y2="212" stroke="#111" stroke-width="1"/>
<rect x="232" y="202" width="8" height="2" fill="#111"/>
<line x1="249" y1="198" x2="249" y2="210" stroke="#111" stroke-width="1"/>
<rect x="245" y="201" width="8" height="1" fill="none" stroke="#111" stroke-width="1"/>
<line x1="263" y1="186" x2="263" y2="209" stroke="#111" stroke-width="1"/>
<rect x="259" y="193" width="8" height="8" fill="#111"/>
<line x1="277" y1="182" x2="277" y2="201" stroke="#111" stroke-width="1"/>
<rect x="273" y="192" width="8" height="1" fill="none" stroke="#111" stroke-width="1"/>
<line x1="290" y1="177" x2="290" y2="202" stroke="#111" stroke-width="1"/>
<rect x="286" y="187" width="8" height="5" fill="#111"/>
<line x1="304" y1="179" x2="304" y2="194" stroke="#111" stroke-width="1"/>
<rect x="300" y="182" width="8" height="5" fill="none" stroke="#111" stroke-width="1"/>
<line x1="318" y1="164" x2="318" y2="191" stroke="#111" stroke-width="1"/>
<rect x="314" y="172" width="8" height="10" fill="#111"/>
<line x1="331" y1="153" x2="331" y2="180" stroke="#111" stroke-width="1"/>
<rect x="327" y="162" width="8" height="10" fill="none" stroke="#111" stroke-width="1"/>
<line x1="345" y1="159" x2="345" y2="174" stroke="#111" stroke-width="1"/>
<rect x="341" y="162" width="8" height="2" fill="#111"/>
<line x1="359" y1="150" x2="359" y2="170" stroke="#111" stroke-width="1"/>
<rect x="355" y="155" width="8" height="9" fill="none" stroke="#111" stroke-width="1"/>
<line x1="372" y1="142" x2="372" y2="165" stroke="#111" stroke-width="1"/>
<rect x="368" y="148" width="8" height="7" fill="#111"/>
<line x1="386" y1="140" x2="386" y2="156" stroke="#111" stroke-width="1"/>
<rect x="382" y="148" width="8" height="1" fill="none" stroke="#111" stroke-width="1"/>
<line x1="400" y1="145" x2="400" y2="161" stroke="#111" stroke-width="1"/>
<rect x="396" y="149" width="8" height="4" fill="#111"/>
<line x1="413" y1="149" x2="413" y2="162" stroke="#111" stroke-width="1"/>
<rect x="409" y="152" width="8" height="1" fill="none" stroke="#111" stroke-width="1"/>
<line x1="427" y1="138" x2="427" y2="160" stroke="#111" stroke-width="1"/>
<rect x="423" y="144" width="8" height="8" fill="#111"/>
<line x1="440" y1="136" x2="440" y2="155" stroke="#111" stroke-width="1"/>
<rect x="436" y="144" width="8" height="6" fill="none" stroke="#111" stroke-width="1"/>
<line x1="454" y1="143" x2="454" y2="154" stroke="#111" stroke-width="1"/>
<rect x="450" y="150" width="8" height="1" fill="#111"/>
<line x1="468" y1="141" x2="468" y2="157" stroke="#111" stroke-width="1"/>
<rect x="464" y="149" width="8" height="1" fill="none" stroke="#111" stroke-width="1"/>
<line x1="481" y1="140" x2="481" y2="154" stroke="#111" stroke-width="1"/>
<rect x="477" y="144" width="8" height="5" fill="#111"/>
<line x1="495" y1="133" x2="495" y2="149" stroke="#111" stroke-width="1"/>
<rect x="491" y="143" width="8" height="1" fill="none" stroke="#111" stroke-width="1"/>
<line x1="509" y1="130" x2="509" y2="152" stroke="#111" stroke-width="1"/>
<rect x="505" y="134" width="8" height="9" fill="#111"/>
<line x1="522" y1="119" x2="522" y2="142" stroke="#111" stroke-width="1"/>
<rect x="518" y="125" width="8" height="9" fill="none" stroke="#111" stroke-width="1"/>
<line x1="536" y1="113" x2="536" y2="134" stroke="#111" stroke-width="1"/>
<rect x="532" y="123" width="8" height="2" fill="#111"/>
<line x1="550" y1="114" x2="550" y2="126" stroke="#111" stroke-width="1"/>
<rect x="546" y="117" width="8" height="6" fill="none" stroke="#111" stroke-width="1"/>
<line x1="563" y1="109" x2="563" y2="128" stroke="#111" stroke-width="1"/>
<rect x="559" y="117" width="8" height="5" fill="#111"/>
<line x1="577" y1="111" x2="577" y2="131" stroke="#111" stroke-width="1"/>
<rect x="573" y="116" width="8" height="6" fill="none" stroke="#111" stroke-width="1"/>
<line x1="591" y1="104" x2="591" y2="125" stroke="#111" stroke-width="1"/>
<rect x="587" y="109" width="8" height="7" fill="#111"/>
<line x1="604" y1="104" x2="604" y2="113" stroke="#111" stroke-width="1"/>
<rect x="600" y="109" width="8" height="1" fill="none" stroke="#111" stroke-width="1"/>
<line x1="618" y1="103" x2="618" y2="118" stroke="#111" stroke-width="1"/>
<rect x="614" y="110" width="8" height="3" fill="#111"/>
<line x1="631" y1="108" x2="631" y2="127" stroke="#111" stroke-width="1"/>
<rect x="627" y="113" width="8" height="4" fill="none" stroke="#111" stroke-width="1"/>
<line x1="645" y1="109" x2="645" y2="132" stroke="#111" stroke-width="1"/>
<rect x="641" y="117" width="8" height="5" fill="#111"/>
<line x1="659" y1="113" x2="659" y2="132" stroke="#111" stroke-width="1"/>
<rect x="655" y="120" width="8" height="2" fill="none" stroke="#111" stroke-width="1"/>
<line x1="672" y1="115" x2="672" y2="126" stroke="#111" stroke-width="1"/>
<rect x="668" y="120" width="8" height="2" fill="#111"/>
<line x1="686" y1="117" x2="686" y2="134" stroke="#111" stroke-width="1"/>
<rect x="682" y="122" width="8" height="2" fill="none" stroke="#111" stroke-width="1"/>
<line x1="700" y1="119" x2="700" y2="128" stroke="#111" stroke-width="1"/>
<rect x="696" y="124" width="8" height="1" fill="#111"/>
<line x1="713" y1="117" x2="713" y2="137" stroke="#111" stroke-width="1"/>
<rect x="709" y="124" width="8" height="5" fill="none" stroke="#111" stroke-width="1"/>
<line x1="727" y1="113" x2="727" y2="132" stroke="#111" stroke-width="1"/>
<rect x="723" y="121" width="8" height="8" fill="#111"/>
<line x1="741" y1="112" x2="741" y2="128" stroke="#111" stroke-width="1"/>
<rect x="737" y="120" width="8" height="1" fill="none" stroke="#111" stroke-width="1"/>
<line x1="754" y1="113" x2="754" y2="132" stroke="#111" stroke-width="1"/>
<rect x="750" y="120" width="8" height="5" fill="#111"/>
<line x1="768" y1="120" x2="768" y2="128" stroke="#111" stroke-width="1"/>
<rect x="764" y="125" width="8" height="1" fill="none" stroke="#111" stroke-width="1"/>
<rect x="12" y="438" width="776" height="12" fill="none" stroke="#111"/>
<rect x="12" y="454" width="776" height="10" fill="none" stroke="#111"/>
</svg>