<svg xmlns="http://www.w3.org/2000/svg" width="800" height="480" viewBox="0 0 800 480">
<rect width="800" height="480" fill="#dcdcdc"/>
<rect x="8" y="8" width="784" height="228" fill="#efefef" stroke="#111" stroke-width="2"/>
<text x="16" y="23" font-size="12" font-family="monospace">ASTER/USDT 3m HA</text>
<line x1="12" y1="74" x2="788" y2="74" stroke="#666" stroke-dasharray="4 4"/>
<line x1="12" y1="112" x2="788" y2="112" stroke="#666" stroke-dasharray="4 4"/>
<line x1="12" y1="150" x2="788" y2="150" stroke="#666" stroke-dasharray="4 4"/>
<line x1="18" y1="106" x2="18" y2="126" stroke="#111" stroke-width="1"/>
<rect x="14" y="113" width="8" height="5" fill="#111"/>
<line x1="31" y1="106" x2="31" y2="125" stroke="#111" stroke-width="1"/>
<rect x="27" y="116" width="8" height="2" fill="none" stroke="#111" stroke-width="1"/>
<line x1="45" y1="108" x2="45" y2="130" stroke="#111" stroke-width="1"/>
<rect x="41" y="116" width="8" height="6" fill="#111"/>
<line x1="58" y1="112" x2="58" y2="131" stroke="#111" stroke-width="1"/>
<rect x="54" y="120" width="8" height="2" fill="none" stroke="#111" stroke-width="1"/>
<line x1="72" y1="115" x2="72" y2="131" stroke="#111" stroke-width="1"/>
<rect x="68" y="120" width="8" height="1" fill="#111"/>
<line x1="86" y1="113" x2="86" y2="127" stroke="#111" stroke-width="1"/>
<rect x="82" y="121" width="8" height="1" fill="none" stroke="#111" stroke-width="1"/>
<line x1="99" y1="117" x2="99" y2="134" stroke="#111" stroke-width="1"/>
<rect x="95" y="122" width="8" height="6" fill="#111"/>
<line x1="113" y1="118" x2="113" y2="136" stroke="#111" stroke-width="1"/>
<rect x="109" y="128" width="8" height="1" fill="none" stroke="#111" stroke-width="1"/>
<line x1="127" y1="112" x2="127" y2="134" stroke="#111" stroke-width="1"/>
<rect x="123" y="121" width="8" height="8" fill="#111"/>
<line x1="140" y1="112" x2="140" y2="137" stroke="#111" stroke-width="1"/>
<rect x="136" y="121" width="8" height="9" fill="none" stroke="#111" stroke-width="1"/>
<line x1="154" y1="123" x2="154" y2="142" stroke="#111" stroke-width="1"/>
<rect x="150" y="130" width="8" height="9" fill="#111"/>
<line x1="168" y1="130" x2="168" y2="149" stroke="#111" stroke-width="1"/>
<rect x="164" y="135" width="8" height="4" fill="none" stroke="#111" stroke-width="1"/>
<line x1="181" y1="130" x2="181" y2="150" stroke="#111" stroke-width="1"/>
<rect x="177" y="135" width="8" height="9" fill="#111"/>
<line x1="195" y1="136" x2="195" y2="154" stroke="#111" stroke-width="1"/>
<rect x="191" y="139" width="8" height="5" fill="none" stroke="#111" stroke-width="1"/>
<line x1="209" y1="131" x2="209" y2="142" stroke="#111" stroke-width="1"/>
<rect x="205" y="136" width="8" height="3" fill="#111"/>
<line x1="222" y1="126" x2="222" y2="144" stroke="#111" stroke-width="1"/>
<rect x="218" y="130" width="8" height="6" fill="none" stroke="#111" stroke-width="1"/>
<line x1="236" y1="115" x2="236" y2="136" stroke="#111" stroke-width="1"/>
<rect x="232" y="125" width="8" height="5" fill="#111"/>
<line x1="249" y1="122" x2="249" y2="141" stroke="#111" stroke-width="1"/>
<rect x="245" y="125" width="8" height="7" fill="none" stroke="#111" stroke-width="1"/>
<line x1="263" y1="124" x2="263" y2="145" stroke="#111" stroke-width="1"/>
<rect x="259" y="132" width="8" height="4" fill="#111"/>
<line x1="277" y1="132" x2="277" y2="151" stroke="#111" stroke-width="1"/>
<rect x="273" y="136" width="8" height="9" fill="none" stroke="#111" stroke-width="1"/>
<line x1="290" y1="134" x2="290" y2="148" stroke="#111" stroke-width="1"/>
<rect x="286" y="142" width="8" height="3" fill="#111"/>
<line x1="304" y1="133" x2="304" y2="150" stroke="#111" stroke-width="1"/>
<rect x="300" y="142" width="8" height="1" fill="none" stroke="#111" stroke-width="1"/>
<line x1="318" y1="139" x2="318" y2="154" stroke="#111" stroke-width="1"/>
<rect x="314" y="143" width="8" height="3" fill="#111"/>
<line x1="331" y1="130" x2="331" y2="150" stroke="#111" stroke-width="1"/>
<rect x="327" y="137" width="8" height="9" fill="none" stroke="#111" stroke-width="1"/>
<line x1="345" y1="128" x2="345" y2="144" stroke="#111" stroke-width="1"/>
<rect x="341" y="136" width="8" height="1" fill="#111"/>
<line x1="359" y1="131" x2="359" y2="146" stroke="#111" stroke-width="1"/>
<rect x="355" y="136" width="8" height="1" fill="none" stroke="#111" stroke-width="1"/>
<line x1="372" y1="129" x2="372" y2="150" stroke="#111" stroke-width="1"/>
<rect x="368" y="137" width="8" height="3" fill="#111"/>
<line x1="386" y1="129" x2="386" y2="149" stroke="#111" stroke-width="1"/>
<rect x="382" y="134" width="8" height="6" fill="none" stroke="#111" stroke-width="1"/>
<line x1="400" y1="124" x2="400" y2="148" stroke="#111" stroke-width="1"/>
<rect x="396" y="134" width="8" height="8" fill="#111"/>
<line x1="413" y1="132" x2="413" y2="150" stroke="#111" stroke-width="1"/>
<rect x="409" y="136" width="8" height="6" fill="none" stroke="#111" stroke-width="1"/>
<line x1="427" y1="117" x2="427" y2="140" stroke="#111" stroke-width="1"/>
<rect x="423" y="126" width="8" height="10" fill="#111"/>
<line x1="440" y1="121" x2="440" y2="134" stroke="#111" stroke-width="1"/>
<rect x="436" y="126" width="8" height="1" fill="none" stroke="#111" stroke-width="1"/>
<line x1="454" y1="117" x2="454" y2="145" stroke="#111" stroke-width="1"/>
<rect x="450" y="126" width="8" height="10" fill="#111"/>
<line x1="468" y1="130" x2="468" y2="149" stroke="#111" stroke-width="1"/>
<rect x="464" y="136" width="8" height="3" fill="none" stroke="#111" stroke-width="1"/>
<line x1="481" y1="128" x2="481" y2="148" stroke="#111" stroke-width="1"/>
<rect x="477" y="138" width="8" height="1" fill="#111"/>
<line x1="495" y1="133" x2="495" y2="147" stroke="#111" stroke-width="1"/>
<rect x="491" y="138" width="8" height="2" fill="none" stroke="#111" stroke-width="1"/>
<line x1="509" y1="129" x2="509" y2="147" stroke="#111" stroke-width="1"/>
<rect x="505" y="139" width="8" height="1" fill="#111"/>
<line x1="522" y1="136" x2="522" y2="150" stroke="#111" stroke-width="1"/>
<rect x="518" y="139" width="8" height="3" fill="none" stroke="#111" stroke-width="1"/>
<line x1="536" y1="131" x2="536" y2="149" stroke="#111" stroke-width="1"/>
<rect x="532" y="141" width="8" height="1" fill="#111"/>
<line x1="550" y1="125" x2="550" y2="144" stroke="#111" stroke-width="1"/>
<rect x="546" y="135" width="8" height="6" fill="none" stroke="#111" stroke-width="1"/>
<line x1="563" y1="118" x2="563" y2="141" stroke="#111" stroke-width="1"/>
<rect x="559" y="128" width="8" height="7" fill="#111"/>
<line x1="577" y1="124" x2="577" y2="133" stroke="#111" stroke-width="1"/>
<rect x="573" y="127" width="8" height="1" fill="none" stroke="#111" stroke-width="1"/>
<line x1="591" y1="124" x2="591" y2="139" stroke="#111" stroke-width="1"/>
<rect x="587" y="127" width="8" height="2" fill="#111"/>
<line x1="604" y1="122" x2="604" y2="142" stroke="#111" stroke-width="1"/>
<rect x="600" y="129" width="8" height="7" fill="none" stroke="#111" stroke-width="1"/>
<line x1="618" y1="133" x2="618" y2="147" stroke="#111" stroke-width="1"/>
<rect x="614" y="136" width="8" height="5" fill="#111"/>
<line x1="631" y1="134" x2="631" y2="151" stroke="#111" stroke-width="1"/>
<rect x="627" y="141" width="8" height="5" fill="none" stroke="#111" stroke-width="1"/>
<line x1="645" y1="138" x2="645" y2="156" stroke="#111" stroke-width="1"/>
<rect x="641" y="145" width="8" height="1" fill="#111"/>
<line x1="659" y1="135" x2="659" y2="158" stroke="#111" stroke-width="1"/>
<rect x="655" y="145" width="8" height="9" fill="none" stroke="#111" stroke-width="1"/>
<line x1="672" y1="139" x2="672" y2="161" stroke="#111" stroke-width="1"/>
<rect x="668" y="144" width="8" height="10" fill="#111"/>
<line x1="686" y1="135" x2="686" y2="151" stroke="#111" stroke-width="1"/>
<rect x="682" y="143" width="8" height="1" fill="none" stroke="#111" stroke-width="1"/>
<line x1="700" y1="140" x2="700" y2="159" stroke="#111" stroke-width="1"/>
<rect x="696" y="143" width="8" height="6" fill="#111"/>
<line x1="713" y1="141" x2="713" y2="155" stroke="#111" stroke-width="1"/>
<rect x="709" y="149" width="8" height="1" fill="none" stroke="#111" stroke-width="1"/>
<line x1="727" y1="138" x2="727" y2="157" stroke="#111" stroke-width="1"/>
<rect x="723" y="141" width="8" height="9" fill="#111"/>
<line x1="741" y1="131" x2="741" y2="152" stroke="#111" stroke-width="1"/>
<rect x="737" y="141" width="8" height="7" fill="none" stroke="#111" stroke-width="1"/>
<line x1="754" y1="142" x2="754" y2="158" stroke="#111" stroke-width="1"/>
<rect x="750" y="148" width="8" height="7" fill="#111"/>
<line x1="768" y1="146" x2="768" y2="168" stroke="#111" stroke-width="1"/>
<rect x="764" y="155" width="8" height="3" fill="none" stroke="#111" stroke-width="1"/>
<rect x="12" y="202" width="776" height="12" fill="none" stroke="#111"/>
<rect x="12" y="218" width="776" height="10" fill="none" stroke="#111"/>
<rect x="8" y="244" width="784" height="228" fill="#efefef" stroke="#111" stroke-width="2"/>
<text x="16" y="259" font-size="12" font-family="monospace">ETH/USDC 1h HA</text>
<line x1="12" y1="310" x2="788" y2="310" stroke="#666" stroke-dasharray="4 4"/>
<line x1="12" y1="348" x2="788" y2="348" stroke="#666" stroke-dasharray="4 4"/>
<line x1="12" y1="386" x2="788" y2="386" stroke="#666" stroke-dasharray="4 4"/>
<line x1="18" y1="339" x2="18" y2="360" stroke="#111" stroke-width="1"/>
<rect x="14" y="349" width="8" height="2" fill="#111"/>
<line x1="31" y1="340" x2="31" y2="361" stroke="#111" stroke-width="1"/>
<rect x="27" y="347" width="8" height="4" fill="none" stroke="#111" stroke-width="1"/>
<line x1="45" y1="332" x2="45" y2="350" stroke="#111" stroke-width="1"/>
<rect x="41" y="339" width="8" height="8" fill="#111"/>
<line x1="58" y1="332" x2="58" y2="352" stroke="#111" stroke-width="1"/>
<rect x="54" y="339" width="8" height="3" fill="none" stroke="#111" stroke-width="1"/>
<line x1="72" y1="336" x2="72" y2="347" stroke="#111" stroke-width="1"/>
<rect x="68" y="341" width="8" height="1" fill="#111"/>
<line x1="86" y1="331" x2="86" y2="354" stroke="#111" stroke-width="1"/>
<rect x="82" y="341" width="8" height="5" fill="none" stroke="#111" stroke-width="1"/>
<line x1="99" y1="341" x2="99" y2="362" stroke="#111" stroke-width="1"/>
<rect x="95" y="346" width="8" height="7" fill="#111"/>
<line x1="113" y1="350" x2="113" y2="365" stroke="#111" stroke-width="1"/>
<rect x="109" y="353" width="8" height="8" fill="none" stroke="#111" stroke-width="1"/>
<line x1="127" y1="351" x2="127" y2="365" stroke="#111" stroke-width="1"/>
<rect x="123" y="358" width="8" height="3" fill="#111"/>
<line x1="140" y1="347" x2="140" y2="366" stroke="#111" stroke-width="1"/>
<rect x="136" y="350" width="8" height="8" fill="none" stroke="#111" stroke-width="1"/>
<line x1="154" y1="346" x2="154" y2="362" stroke="#111" stroke-width="1"/>
<rect x="150" y="350" width="8" height="3" fill="#111"/>
<line x1="168" y1="350" x2="168" y2="362" stroke="#111" stroke-width="1"/>
<rect x="164" y="353" width="8" height="5" fill="none" stroke="#111" stroke-width="1"/>
<line x1="181" y1="345" x2="181" y2="362" stroke="#111" stroke-width="1"/>
<rect x="177" y="351" width="8" height="7" fill="#111"/>
<line x1="195" y1="338" x2="195" y2="361" stroke="#111" stroke-width="1"/>
<rect x="191" y="345" width="8" height="6" fill="none" stroke="#111" stroke-width="1"/>
<line x1="209" y1="334" x2="209" y2="350" stroke="#111" stroke-width="1"/>
<rect x="205" y="339" width="8" height="6" fill="#111"/>
<line x1="222" y1="334" x2="222" y2="346" stroke="#111" stroke-width="1"/>
<rect x="218" y="339" width="8" height="3" fill="none" stroke="#111" stroke-width="1"/>
<line x1="236" y1="336" x2="236" y2="354" stroke="#111" stroke-width="1"/>
<rect x="232" y="342" width="8" height="9" fill="#111"/>
<line x1="249" y1="347" x2="249" y2="367" stroke="#111" stroke-width="1"/>
<rect x="245" y="351" width="8" height="7" fill="none" stroke="#111" stroke-width="1"/>
<line x1="263" y1="343" x2="263" y2="361" stroke="#111" stroke-width="1"/>
<rect x="259" y="350" width="8" height="8" fill="#111"/>
<line x1="277" y1="346" x2="277" y2="367" stroke="#111" stroke-width="1"/>
<rect x="273" y="350" width="8" height="8" fill="none" stroke="#111" stroke-width="1"/>
<line x1="290" y1="353" x2="290" y2="370" stroke="#111" stroke-width="1"/>
<rect x="286" y="358" width="8" height="9" fill="#111"/>
<line x1="304" y1="363" x2="304" y2="378" stroke="#111" stroke-width="1"/>
<rect x="300" y="367" width="8" height="3" fill="none" stroke="#111" stroke-width="1"/>
<line x1="318" y1="360" x2="318" y2="389" stroke="#111" stroke-width="1"/>
<rect x="314" y="370" width="8" height="9" fill="#111"/>
<line x1="331" y1="371" x2="331" y2="383" stroke="#111" stroke-width="1"/>
<rect x="327" y="379" width="8" height="1" fill="none" stroke="#111" stroke-width="1"/>
<line x1="345" y1="367" x2="345" y2="385" stroke="#111" stroke-width="1"/>
<rect x="341" y="374" width="8" height="6" fill="#111"/>
<line x1="359" y1="367" x2="359" y2="388" stroke="#111" stroke-width="1"/>
<rect x="355" y="374" width="8" height="8" fill="none" stroke="#111" stroke-width="1"/>
<line x1="372" y1="376" x2="372" y2="388" stroke="#111" stroke-width="1"/>
<rect x="368" y="380" width="8" height="2" fill="#111"/>
<line x1="386" y1="371" x2="386" y2="385" stroke="#111" stroke-width="1"/>
<rect x="382" y="378" width="8" height="2" fill="none" stroke="#111" stroke-width="1"/>
<line x1="400" y1="367" x2="400" y2="388" stroke="#111" stroke-width="1"/>
<rect x="396" y="375" width="8" height="3" fill="#111"/>
<line x1="413" y1="370" x2="413" y2="382" stroke="#111" stroke-width="1"/>
<rect x="409" y="375" width="8" height="2" fill="none" stroke="#111" stroke-width="1"/>
<line x1="427" y1="359" x2="427" y2="381" stroke="#111" stroke-width="1"/>
<rect x="423" y="367" width="8" height="10" fill="#111"/>
<line x1="440" y1="364" x2="440" y2="379" stroke="#111" stroke-width="1"/>
<rect x="436" y="367" width="8" height="8" fill="none" stroke="#111" stroke-width="1"/>
<line x1="454" y1="358" x2="454" y2="381" stroke="#111" stroke-width="1"/>
<rect x="450" y="368" width="8" height="7" fill="#111"/>
<line x1="468" y1="358" x2="468" y2="380" stroke="#111" stroke-width="1"/>
<rect x="464" y="368" width="8" height="2" fill="none" stroke="#111" stroke-width="1"/>
<line x1="481" y1="366" x2="481" y2="373" stroke="#111" stroke-width="1"/>
<rect x="477" y="370" width="8" height="1" fill="#111"/>
<line x1="495" y1="361" x2="495" y2="380" stroke="#111" stroke-width="1"/>
<rect x="491" y="370" width="8" height="7" fill="none" stroke="#111" stroke-width="1"/>
<line x1="509" y1="362" x2="509" y2="383" stroke="#111" stroke-width="1"/>
<rect x="505" y="371" width="8" height="6" fill="#111"/>
<line x1="522" y1="360" x2="522" y2="381" stroke="#111" stroke-width="1"/>
<rect x="518" y="364" width="8" height="7" fill="none" stroke="#111" stroke-width="1"/>
<line x1="536" y1="355" x2="536" y2="373" stroke="#111" stroke-width="1"/>
<rect x="532" y="360" width="8" height="4" fill="#111"/>
<line x1="550" y1="354" x2="550" y2="368" stroke="#111" stroke-width="1"/>
<rect x="546" y="360" width="8" height="1" fill="none" stroke="#111" stroke-width="1"/>
<line x1="563" y1="353" x2="563" y2="370" stroke="#111" stroke-width="1"/>
<rect x="559" y="361" width="8" height="1" fill="#111"/>
<line x1="577" y1="356" x2="577" y2="371" stroke="#111" stroke-width="1"/>
<rect x="573" y="361" width="8" height="2" fill="none" stroke="#111" stroke-width="1"/>
<line x1="591" y1="356" x2="591" y2="382" stroke="#111" stroke-width="1"/>
<rect x="587" y="363" width="8" height="10" fill="#111"/>
<line x1="604" y1="370" x2="604" y2="380" stroke="#111" stroke-width="1"/>
<rect x="600" y="373" width="8" height="1" fill="none" stroke="#111" stroke-width="1"/>
<line x1="618" y1="360" x2="618" y2="378" stroke="#111" stroke-width="1"/>
<rect x="614" y="369" width="8" height="5" fill="#111"/>
<line x1="631" y1="359" x2="631" y2="372" stroke="#111" stroke-width="1"/>
<rect x="627" y="362" width="8" height="7" fill="none" stroke="#111" stroke-width="1"/>
<line x1="645" y1="351" x2="645" y2="368" stroke="#111" stroke-width="1"/>
<rect x="641" y="357" width="8" height="5" fill="#111"/>
<line x1="659" y1="338" x2="659" y2="367" stroke="#111" stroke-width="1"/>
<rect x="655" y="348" width="8" height="9" fill="none" stroke="#111" stroke-width="1"/>
<line x1="672" y1="345" x2="672" y2="358" stroke="#111" stroke-width="1"/>
<rect x="668" y="348" width="8" height="1" fill="#111"/>
<line x1="686" y1="342" x2="686" y2="363" stroke="#111" stroke-width="1"/>
<rect x="682" y="349" width="8" height="5" fill="none" stroke="#111" stroke-width="1"/>
<line x1="700" y1="344" x2="700" y2="364" stroke="#111" stroke-width="1"/>
<rect x="696" y="354" width="8" height="1" fill="#111"/>
<line x1="713" y1="341" x2="713" y2="359" stroke="#111" stroke-width="1"/>
<rect x="709" y="347" width="8" height="7" fill="none" stroke="#111" stroke-width="1"/>
<line x1="727" y1="342" x2="727" y2="361" stroke="#111" stroke-width="1"/>
<rect x="723" y="347" width="8" height="10" fill="#111"/>
<line x1="741" y1="348" x2="741" y2="368" stroke="#111" stroke-width="1"/>
<rect x="737" y="357" width="8" height="1" fill="none" stroke="#111" stroke-width="1"/>
<line x1="754" y1="345" x2="754" y2="362" stroke="#111" stroke-width="1"/>
<rect x="750" y="352" width="8" height="6" fill="#111"/>
<line x1="768" y1="345" x2="768" y2="359" stroke="#111" stroke-width="1"/>
<rect x="764" y="350" width="8" height="2" fill="none" stroke="#111" stroke-width="1"/>
<rect x="12" y="438" width="776" height="12" fill="none" stroke="#111"/>
<rect x="12" y="454" width="776" height="10" fill="none" stroke="#111"/>
</svg>